<?xml version="1.0" encoding="UTF-8" standalone="no"?>
<!-- Created with Inkscape (http://www.inkscape.org/) -->

<svg
   width="640"
   height="640"
   viewBox="0 0 640 640.00003"
   version="1.1"
   id="svg1"
   xml:space="preserve"
   xmlns="http://www.w3.org/2000/svg"
   xmlns:svg="http://www.w3.org/2000/svg"><defs
     id="defs1" /><g
     id="layer1"><path
       d="M 93.76,94 C 35.84,151.92 0,231.92 0,320.24 0,408.56 35.84,488.56 93.76,546.48 l 45.12,-45.12 C 92.48,455.28 64,391.28 64,320.24 64,249.52 92.48,185.2 138.88,139.12 L 93.76,94 m 452.48,0 -45.12,45.12 c 46.4,46.08 74.88,110.4 74.88,181.12 0,71.04 -28.48,135.04 -74.88,181.12 l 45.12,45.12 C 604.16,488.56 640,408.56 640,320.24 640,231.92 604.16,151.92 546.24,94 M 184.32,184.56 C 149.44,219.44 128,267.44 128,320.24 c 0,52.8 21.44,100.8 56.32,135.68 L 229.44,410.8 C 206.4,387.76 192,355.76 192,320.24 c 0,-35.52 14.4,-67.52 37.44,-90.56 l -45.12,-45.12 m 271.36,0 -45.12,45.12 c 23.04,23.04 37.44,55.04 37.44,90.56 0,35.52 -14.4,67.52 -37.44,90.56 l 45.12,45.12 C 490.56,421.04 512,373.04 512,320.24 512,267.44 490.56,219.44 455.68,184.56 M 320,256.24 a 64,64 0 0 0 -64,64 64,64 0 0 0 64,64 64,64 0 0 0 64,-64 64,64 0 0 0 -64,-64 z"
       id="path1"
       style="fill:#3cb96a;fill-opacity:1;stroke-width:32" /></g></svg>
